<svg version="1.2" xmlns="http://www.w3.org/2000/svg" viewBox="0 0 133 195" width="133" height="195"><style>.a{fill:#fff}</style><path d="m47 166.9c-5.9-7.3-34-43.3-40.2-54-5.3-9.1-11.5-28.2-1.4-47.9 8.7-17 27.9-28.2 57.1-33.4 21.3-3.7 29.5-7.4 33.1-9.8 3.6-2.4-1.1-4.1-1.7-4.5l-30.5-14.9 34.1-2.4c0.7-0.1 2.2-0.2 4.2 0 6.6 0.8 25 4.3 30.3 35.9 4.5 26.4-19 45.6-36.7 59.9-8 6.5-14.6 13-18.2 18-13.3 18.9-11 46.2-10.8 49.7 0.6 9.9 3.5 31.8 3.5 31.8z"/><path class="a" d="m51.3 163.5c-3.6-4.5-32.3-39.3-39.6-53-4.2-7.9-10.4-25.5-1.4-43 7.9-15.4 25.8-25.6 53.2-30.5 37.2-6.5 38.7-12.7 39-14.6 0.3-1.9-0.1-6.1-5.2-8.4l-17.7-8.4 18.6-0.2c0.3 0 1.4-0.1 2.9 0.1 5.4 0.6 21.6 3 26.1 31.1 3.7 23.6-17.9 40.9-35.3 55-8.8 7.1-15.9 13.9-20 19.8-11.2 16.5-11.1 42.2-10.9 48.1 0.2 8 1.7 18.2 1.7 18.2z"/><path d="m16.7 108.5c-4.8-8.6-22.4-53.3 47.8-65.7 58.7-10.3 43.2-25.4 36.6-30.1-0.1-0.1-3-2.1-3-2.1 0 0 1.7 0.1 3.2 0.3 5.1 0.8 16.7 2.2 20.9 25.8 5.7 33-42 51.3-55.3 73.8-14.8 25-9.8 53.6-9.8 53.6 0 0-32.5-41.1-40.4-55.6z"/><path class="a" d="m54.2 162l-11.2-37.5 15.3 38.9-0.9 1.2z"/><path d="m63.1 170.8c1.2 3.3 0.7 6.5-1 7.1-1.7 0.6-4-1.6-5.2-4.9-1.1-3.3-0.7-6.4 1-7 1.7-0.6 4 1.5 5.2 4.8z"/><path class="a" d="m49 128.8c-0.1 2.2-2 3.8-4.2 3.7-2.2-0.2-3.9-2.1-3.7-4.3 0.1-2.2 2-3.8 4.2-3.6 2.2 0.1 3.9 2 3.7 4.2z"/><path fill-rule="evenodd" class="a" d="m41.8 106.9l3 13.1-5.3 2.8-14.5-25.5q0 0 0 0c-1.9-3.2-2.8-6.9-2.5-10.9 0.7-10.5 9.9-18.4 20.4-17.7 10.5 0.8 18.5 9.9 17.7 20.4-0.7 10-9 17.7-18.8 17.8zm9.8-13.8c0.3-4.1-2.8-7.7-6.9-8-4.1-0.3-7.7 2.8-8 7-0.3 4.1 2.8 7.7 6.9 8 4.2 0.3 7.7-2.9 8-7z"/><path fill-rule="evenodd" class="a" d="m79.1 69.7l-13.5 8.8q1.1 1.6 2.3 1.9 1.8 0.4 3.5-0.9 1.1-0.7 1.8-1.9 0.4-0.8 0.7-2l5.9-3.4c0.5 1.7 0.3 3.5-1.2 6.2-1 1.9-2.2 3.3-5.2 5.5-2.6 2-8.8 5.6-8.7 3.8 0.2-3.6-0.8-6.2-1.8-8.3-1.5-3-2.3-3.9-4.4-6.3-1.6-2.4 1.7-6.7 5.3-8.7 2.8-1.6 3.9-1.7 5.8-1.8 2.1 0.1 4 0.6 5.5 1.5 1.4 0.8 2.3 2.3 3.5 4.4zm-7.7-0.1q-1.2-1.8-2.6-2-1.3-0.3-2.9 0.7-1.8 1.1-2.3 3-0.3 1.3 0.3 3z"/><path class="a" d="m74.5 61l4-2.3 1.9 1.7c-0.2-1.4-0.1-2 0.4-2.8q0.7-1.1 2.1-2c1.3-0.8 3.6-0.4 4.6 0.4 1.3 1.1 1.8 1.7 3.3 4.1 1.5 2.5 2 6.8 2 6.8l-3.4 3.2c0 0-0.8-4.5-2-7-0.7-1.4-1.9-2.6-2.5-3.1-0.4-0.3-1.1-0.6-2.2-0.2-0.8 0.4-0.7 1.1-0.7 2.1 0 0.7 0.6 0.3 2.1 3.5 2.2 4.3 2.2 7.4 2.2 7.4l-3.2 2.7c0 0-0.8-4.9-2.7-8.6-1.9-3.7-5.9-5.9-5.9-5.9z"/><path class="a" d="m95.6 48l2.3-1.9 1.6 0.9c-0.3-0.9-0.4-1.3-0.2-1.9q0.3-0.8 1.1-1.6c0.8-0.6 2.5-0.6 3.3-0.2 1.2 0.6 1.9 0.9 3.3 2.4 1.6 1.4 2.4 3.5 2.4 3.5l-2.3 3.2c0 0-0.9-2.8-2.2-4.3-0.7-0.9-1.8-1.6-2.3-1.8-0.3-0.2-0.9-0.3-1.5 0.1-0.6 0.3-0.3 0.7-0.2 1.4 0.2 0.5 0.5 0.2 2.2 2.1 2.2 2.6 2.5 4.6 2.5 4.6l-1.7 2.1c0 0-1.2-3.1-3.2-5.4-1.9-2.2-5.1-3.2-5.1-3.2z"/><path fill-rule="evenodd" class="a" d="m92.7 54.8l-2.5 2.6c-0.9-1-1.2-1.5-1.9-2-0.4-0.4 0.1-1.4 0.4-2q0.3-0.6 1-1.4 0.8-0.8 1.8-1.5c1-0.7 0.6-0.5 1.4-0.9 0.7-0.3 1.4-0.5 2-0.5 0.7 0 1.3 0.3 1.8 0.6 0.6 0.4 1.1 0.7 2.1 1.7 1.4 1.3 2.2 2.9 2.7 3.8 0.4 1 0.7 2.2 0.9 2.8l-1.5 1.4c-0.1-0.7 0.2-0.1 0-0.8-0.2-0.5-0.4-0.7-0.7-1q0 1.3-0.4 2.2c-0.4 0.8-0.9 1.8-1.7 2.6-1.1 1-2.5 2-3.6 1.9-0.7 0-0.5 0.1-1-1.2-0.4-1.3-1.4-3.2-1.9-4.1-0.5-0.8 0.1-1.5 1-2.6 1.1-1.4 2-2 2.3-2.5 0.3-0.4 1.1-1 0.8-1.3-0.2-0.3-0.7-0.7-1-0.7q-0.4-0.1-1.1 0.4-0.8 0.6-1 1.3-0.2 0.4 0.1 1.2zm5-0.8q-0.4 0.8-1 1.7-0.8 1.1-0.8 1.7 0 0.5 0.3 0.9 0.3 0.5 0.8 0.5 0.6 0 1.1-0.4 0.5-0.5 0.8-1.2 0.2-0.7 0-1.3-0.2-0.6-0.7-1.3z"/><path fill-rule="evenodd" class="a" d="m107.7 41.5l-1 2.4c-0.7-0.6-1.2-1-1.7-1.1-0.4-0.1-0.3-0.7-0.3-1.1q0.1-0.5 0.4-1.2 0.4-0.6 0.9-1.3c0.6-0.7 0.4-0.5 0.8-0.9 0.4-0.4 0.9-0.8 1.3-0.9 0.4-0.1 0.9-0.1 1.3-0.1 0.5 0.1 0.8 0.2 1.7 0.6 1.2 0.4 0.8 0.4 1.5 0.7 0.7 0.4 1.1-0.1 1.6-0.6 0 0-0.1 2.1-0.5 2.5-0.3 0.3-0.4 0.5-0.7 0.4-0.2-0.1-0.1-0.1-0.3-0.1 0.5 0.4 0.6 1.1 0.6 1.6-0.1 0.6-0.5 1.6-0.8 2.2-0.6 1.1-1.5 2-1.7 2.2-0.3 0.2-0.7 0.4-1.3-0.3-0.5-0.6-1.4-1.2-1.9-1.7-0.4-0.3-0.2-1.4 0.2-2.3 0.5-1.1 1-1.7 1.1-2.1 0.2-0.3 0.6-0.9 0.3-1-0.2-0.1-0.5-0.2-0.8-0.2q-0.3 0.1-0.6 0.5-0.5 0.7-0.5 1.1 0 0.3 0.4 0.7zm3.2-1.4q-0.1 0.7-0.4 1.3-0.3 0.9-0.2 1.2 0.1 0.4 0.3 0.6 0.4 0.1 0.7 0 0.4-0.1 0.6-0.5 0.3-0.4 0.3-0.9 0-0.5-0.2-0.8-0.2-0.3-0.7-0.6z"/></svg>